<svg width="160" height="160" viewBox="0 0 160 160" fill="none" xmlns="http://www.w3.org/2000/svg">
  <defs>
    <linearGradient id="spedexGlow" x1="24" y1="20" x2="136" y2="144" gradientUnits="userSpaceOnUse">
      <stop stop-color="#FF8BC2"/>
      <stop offset="0.55" stop-color="#FF4FA3"/>
      <stop offset="1" stop-color="#A61162"/>
    </linearGradient>
    <linearGradient id="spedexStroke" x1="35" y1="34" x2="124" y2="126" gradientUnits="userSpaceOnUse">
      <stop stop-color="#FFF9FC"/>
      <stop offset="1" stop-color="#FFD3E8"/>
    </linearGradient>
  </defs>
  <rect x="10" y="10" width="140" height="140" rx="42" fill="url(#spedexGlow)"/>
  <rect x="18" y="18" width="124" height="124" rx="34" fill="rgba(255,255,255,0.18)" stroke="rgba(255,255,255,0.28)" stroke-width="2"/>
  <path
    d="M105.345 49.196C98.164 42.632 88.981 39.351 77.795 39.351C69.711 39.351 62.94 41.191 57.481 44.872C52.121 48.553 49.441 53.543 49.441 59.842C49.441 65.344 51.713 69.819 56.256 73.267C60.899 76.617 69.213 79.367 81.197 81.517C88.18 82.768 93.075 84.285 95.883 86.068C98.69 87.85 100.094 90.367 100.094 93.617C100.094 97.398 98.493 100.381 95.289 102.566C92.184 104.648 87.607 105.689 81.557 105.689C69.673 105.689 59.209 101.48 50.165 93.062L39 108.215C50.779 118.483 64.703 123.617 80.772 123.617C90.509 123.617 98.493 121.404 104.725 116.979C111.056 112.452 114.222 106.337 114.222 98.631C114.222 92.762 111.977 88.021 107.488 84.408C103.097 80.694 95.011 77.711 83.228 75.461C76.344 74.109 71.515 72.592 68.741 70.91C66.032 69.229 64.677 66.879 64.677 63.861C64.677 60.912 66.212 58.492 69.279 56.6C72.346 54.609 76.494 53.613 81.722 53.613C89.505 53.613 97.322 56.555 105.174 62.438L115.967 48.742L105.345 49.196Z"
    fill="url(#spedexStroke)"
  />
</svg>
